<?xml version="1.0" encoding="utf-8"?>
<!-- Generator: Adobe Illustrator 26.0.2, SVG Export Plug-In . SVG Version: 6.00 Build 0)  -->
<svg version="1.1" id="Layer_1" xmlns="http://www.w3.org/2000/svg" xmlns:xlink="http://www.w3.org/1999/xlink" x="0px" y="0px"
	 viewBox="0 0 438.4 510.4" style="enable-background:new 0 0 438.4 510.4;" xml:space="preserve">
<style type="text/css">
	.st0{fill-rule:evenodd;clip-rule:evenodd;fill:url(#SVGID_1_);}
	.st1{fill-rule:evenodd;clip-rule:evenodd;fill:#FFFFFF;}
	.st2{fill-rule:evenodd;clip-rule:evenodd;fill:#0A456F;}
	.st3{fill-rule:evenodd;clip-rule:evenodd;fill:url(#SVGID_00000062170900392653977730000015428699635973714066_);}
	.st4{fill-rule:evenodd;clip-rule:evenodd;fill:url(#SVGID_00000070802537279904825420000010190624333706490535_);}
	.st5{fill-rule:evenodd;clip-rule:evenodd;fill:url(#SVGID_00000094578325982567791090000008218763164497701292_);}
	.st6{fill:none;}
</style>
<linearGradient id="SVGID_1_" gradientUnits="userSpaceOnUse" x1="0" y1="254.8" x2="438.4" y2="254.8" gradientTransform="matrix(1 0 0 -1 0 510)">
	<stop  offset="0" style="stop-color:#F58220"/>
	<stop  offset="0.5" style="stop-color:#F99B1C"/>
	<stop  offset="1" style="stop-color:#FDB515"/>
</linearGradient>
<polygon class="st0" points="438.4,447.2 227.2,510.4 0,447.2 0,0 438.4,0 "/>
<polygon class="st1" points="436.2,438.4 227.2,500.4 2.3,438.4 2.3,0 436.2,0 "/>
<g>
	<g>
		<path class="st2" d="M64.9,326.2c3.6-0.4,5.9-1.1,6.8-2s1.3-3.4,1.3-7.4v-40c0-3.3-0.5-5.4-1.5-6.4s-3.2-1.6-6.6-1.9v-1.7h49.2
			l0.3,13.2h-2.6c-0.6-4.2-1.8-6.9-3.5-8s-5.2-1.7-10.3-1.7H85.3c-1.2,0-2,0.2-2.4,0.6c-0.3,0.4-0.5,1.2-0.5,2.5V294h13.4
			c3.9,0,6.4-0.6,7.5-1.8c1.1-1.2,2-3.5,2.6-7.1h2.2v21.3h-2.2c-0.7-3.6-1.6-5.9-2.7-7.1s-3.6-1.7-7.5-1.7H82.4v20.2
			c0,3.4,0.5,5.5,1.5,6.5c1,0.9,3.3,1.5,6.8,1.8v1.7H64.9V326.2z"/>
		<path class="st2" d="M116.2,326.2c3.4-0.4,5.6-1,6.6-1.8c1-0.9,1.5-3,1.5-6.5v-41.1c0-3.3-0.5-5.4-1.5-6.4s-3.2-1.6-6.6-1.9v-1.7
			h26v1.7c-3.4,0.2-5.7,0.7-6.8,1.7c-1.2,0.9-1.7,2.9-1.7,6v44.4c0,1,0.2,1.8,0.5,2.4s1.1,1,2.3,1.1c0.7,0.1,1.4,0.2,2.2,0.2
			s2.2,0,4.3,0c8.2,0,13.8-0.7,16.7-2c2.9-1.4,5.7-4.8,8.4-10.4h2.4l-4.5,16h-49.7L116.2,326.2L116.2,326.2z"/>
		<path class="st2" d="M209.1,304.2l-10.6-25.4l-10.6,25.4H209.1L209.1,304.2z M169.3,327.9v-1.7c2.4-0.3,4.2-1.2,5.3-2.7
			c1.2-1.5,3.2-5.7,6.1-12.5l19.2-45.3h1.8l23,52.3c1.5,3.5,2.8,5.6,3.7,6.4s2.5,1.4,4.6,1.7v1.7h-23.5v-1.7
			c2.7-0.2,4.4-0.5,5.2-0.9c0.8-0.3,1.2-1.2,1.2-2.5c0-0.4-0.1-1.2-0.4-2.4c-0.3-1.1-0.7-2.3-1.3-3.6l-3.7-8.9h-24.3
			c-2.4,6-3.8,9.7-4.3,11.1c-0.5,1.3-0.7,2.4-0.7,3.2c0,1.6,0.6,2.6,1.9,3.2c0.8,0.4,2.2,0.6,4.4,0.8v1.7L169.3,327.9L169.3,327.9z"
			/>
		<path class="st2" d="M235.7,326.2c3.8-0.4,6.3-1.3,7.3-2.6c1.1-1.3,1.6-4.4,1.6-9.3v-37.5c0-3.3-0.5-5.5-1.6-6.5s-3.4-1.6-7.2-1.8
			v-1.7H254l21.2,46l20.7-46h18.4v1.7c-3.4,0.2-5.6,0.9-6.6,1.9s-1.5,3.1-1.5,6.4v41c0,3.4,0.5,5.5,1.5,6.5c1,0.9,3.2,1.6,6.6,1.9
			v1.7h-25.8v-1.7c3.7-0.3,6-1,7-2c0.9-1,1.4-3.5,1.4-7.4v-41.4L273.3,328H272l-23.2-50.4v36.8c0,5,0.7,8.3,2.2,9.9
			c1,1,3.1,1.7,6.4,2v1.7h-21.7L235.7,326.2L235.7,326.2z"/>
		<path class="st2" d="M317.8,326.2c3.4-0.4,5.6-1,6.6-1.8c1-0.9,1.5-3,1.5-6.5v-41.1c0-3.3-0.5-5.4-1.5-6.4s-3.2-1.6-6.6-1.9v-1.7
			h49l0.3,13.2h-2.3c-0.8-4.1-2-6.7-3.5-7.9c-1.6-1.2-5.1-1.8-10.5-1.8h-12.6c-1.4,0-2.2,0.2-2.5,0.7c-0.3,0.4-0.5,1.3-0.5,2.5V294
			h14.2c3.9,0,6.4-0.6,7.5-1.8c1.1-1.2,2-3.5,2.6-7.1h2.2v21.3h-2.2c-0.7-3.6-1.6-5.9-2.7-7.1s-3.6-1.7-7.5-1.7h-14.2v22.8
			c0,1.8,0.6,2.9,1.7,3.2c1.2,0.3,4.6,0.5,10.4,0.5c6.3,0,10.9-0.7,13.9-2.1s5.7-4.7,8-9.9h2.6l-4.2,15.6h-49.9v-1.5H317.8z"/>
		<path class="st2" d="M77.5,343.4v0.8c-1.7,0.1-2.8,0.4-3.3,0.9s-0.8,1.5-0.8,3.1v14.3c0,2.3,0.3,4.2,1,5.5
			c1.2,2.4,3.5,3.6,6.8,3.6c3.6,0,6.1-1.2,7.3-3.7c0.7-1.4,1-3.5,1-6.3V350c0-2.4-0.3-3.9-0.9-4.6c-0.6-0.6-1.7-1-3.3-1.2v-0.8h10.3
			v0.8c-1.7,0.2-2.9,0.6-3.4,1.2s-0.8,2.1-0.8,4.5v11.6c0,3.1-0.5,5.5-1.4,7.2c-1.7,3.2-5.1,4.8-9.9,4.8s-8.1-1.6-9.8-4.7
			c-0.9-1.7-1.4-3.9-1.4-6.7v-13.9c0-1.6-0.2-2.7-0.7-3.1c-0.5-0.5-1.6-0.8-3.3-0.9v-0.8H77.5z"/>
		<path class="st2" d="M102.2,372.1c1.8-0.2,3-0.6,3.5-1.3c0.5-0.6,0.8-2.1,0.8-4.5v-19.7l-0.6-0.7c-0.7-0.8-1.2-1.2-1.7-1.4
			c-0.5-0.2-1.1-0.3-2.1-0.3v-0.8h7.6l17.2,21.3v-14.8c0-2.4-0.4-4-1.1-4.8c-0.5-0.5-1.5-0.8-3.2-0.9v-0.8h10.5v0.8
			c-1.7,0.2-2.8,0.6-3.4,1.2c-0.6,0.7-0.9,2.1-0.9,4.5v23.5H128L108.5,349v17.4c0,2.4,0.4,4,1.1,4.8c0.5,0.5,1.5,0.8,3.1,1v0.8
			h-10.5V372.1z"/>
		<path class="st2" d="M139.9,372.1c1.8-0.1,3-0.4,3.5-0.8s0.8-1.5,0.8-3.2v-19.8c0-1.6-0.3-2.7-0.8-3.2s-1.7-0.8-3.5-0.8v-0.8h13.2
			v0.8c-1.8,0.1-3,0.4-3.5,0.8c-0.5,0.5-0.8,1.5-0.8,3.2v19.8c0,1.7,0.3,2.8,0.8,3.2c0.5,0.4,1.7,0.7,3.5,0.8v0.8h-13.2V372.1z"/>
		<path class="st2" d="M171.8,343.4v0.8c-1.1,0-1.9,0.1-2.3,0.2c-0.7,0.2-1.1,0.7-1.1,1.4c0,0.4,0.1,0.9,0.4,1.5
			c0.3,0.7,0.7,1.8,1.4,3.3l7,15.5l6.3-16.8c0.3-0.7,0.5-1.4,0.6-1.9s0.2-0.9,0.2-1.3c0-0.9-0.4-1.5-1.1-1.8
			c-0.4-0.2-1.2-0.3-2.2-0.3v-0.8h9.1v0.8c-0.9,0.1-1.6,0.4-2.1,0.8c-0.7,0.6-1.4,1.7-2,3.4l-9.9,25.1h-0.7l-11-24.5
			c-0.9-2.1-1.7-3.4-2.2-3.9c-0.6-0.5-1.4-0.8-2.4-0.9v-0.8h12V343.4z"/>
		<path class="st2" d="M194.7,372.1c1.6-0.2,2.7-0.5,3.2-0.9s0.7-1.5,0.7-3.1v-19.8c0-1.6-0.2-2.6-0.7-3.1s-1.6-0.8-3.2-0.9v-0.8
			h23.7l0.2,6.4h-1.1c-0.4-2-0.9-3.2-1.7-3.8c-0.8-0.6-2.4-0.9-5.1-0.9h-6.1c-0.7,0-1.1,0.1-1.2,0.3c-0.1,0.2-0.2,0.6-0.2,1.2v10
			h6.9c1.9,0,3.1-0.3,3.6-0.8c0.5-0.6,0.9-1.7,1.3-3.4h1v10.3h-1c-0.3-1.7-0.8-2.9-1.3-3.4c-0.5-0.6-1.7-0.8-3.6-0.8h-6.9v11
			c0,0.9,0.3,1.4,0.8,1.6c0.6,0.2,2.2,0.2,5,0.2c3,0,5.3-0.3,6.7-1s2.7-2.3,3.9-4.8h1.2l-2,7.5h-24.1L194.7,372.1L194.7,372.1z"/>
		<path class="st2" d="M242.4,356.6c2.4-1,3.5-2.8,3.5-5.5c0-2.6-1.1-4.3-3.2-5.3c-1.1-0.5-2.6-0.8-4.5-0.8c-1.3,0-2,0.1-2.3,0.3
			c-0.3,0.2-0.4,0.6-0.4,1.3v11C238.8,357.5,241.1,357.2,242.4,356.6L242.4,356.6z M227.2,372.1c1.7-0.2,2.8-0.5,3.2-1
			s0.6-1.7,0.6-3.5v-19.3c0-1.6-0.2-2.6-0.7-3.1s-1.5-0.8-3.1-0.9v-0.8h12.3c2.6,0,4.7,0.3,6.4,1c3.3,1.2,4.9,3.5,4.9,6.8
			c0,2.2-0.7,3.9-2.2,5.1c-1.4,1.2-3.4,2-5.9,2.4L252,370c0.6,0.7,1.1,1.2,1.7,1.5c0.6,0.3,1.3,0.5,2.2,0.6v0.8h-7.2l-11.2-13.7
			l-2,0.1v8.8c0,1.7,0.3,2.7,0.8,3.1s1.6,0.7,3.3,0.9v0.8h-12.4L227.2,372.1L227.2,372.1z"/>
		<path class="st2" d="M262.1,363.9c0.8,2,1.6,3.6,2.7,4.8c1.8,2.1,4,3.1,6.6,3.1c1.4,0,2.7-0.5,3.7-1.4s1.6-2.2,1.6-3.8
			c0-1.5-0.5-2.7-1.6-3.8c-0.7-0.7-2.1-1.7-4.3-3.1l-3.8-2.4c-1.1-0.7-2.1-1.5-2.7-2.2c-1.3-1.4-1.9-3-1.9-4.7
			c0-2.2,0.7-4.1,2.2-5.6s3.5-2.2,5.9-2.2c1,0,2.2,0.3,3.7,0.8c1.4,0.5,2.2,0.8,2.5,0.8c0.6,0,0.9-0.1,1.1-0.4s0.4-0.6,0.5-1.1h0.9
			l1,9.5H279c-0.7-2.9-1.9-4.9-3.5-6s-3.2-1.7-4.8-1.7c-1.2,0-2.3,0.4-3.2,1.1c-0.9,0.7-1.4,1.7-1.4,3c0,1.1,0.3,2.1,1,2.9
			s1.8,1.7,3.2,2.6l3.9,2.4c2.5,1.5,4.2,2.9,5.2,4.2c1,1.3,1.5,2.8,1.5,4.5c0,2.3-0.9,4.3-2.6,5.9c-1.8,1.6-4,2.4-6.8,2.4
			c-1.4,0-2.8-0.3-4.3-0.8s-2.4-0.8-2.6-0.8c-0.5,0-0.9,0.2-1.1,0.5s-0.3,0.7-0.4,1h-1l-1.3-9.5L262.1,363.9L262.1,363.9z"/>
		<path class="st2" d="M288.8,372.1c1.8-0.1,3-0.4,3.5-0.8s0.8-1.5,0.8-3.2v-19.8c0-1.6-0.3-2.7-0.8-3.2s-1.7-0.8-3.5-0.8v-0.8H302
			v0.8c-1.8,0.1-3,0.4-3.5,0.8c-0.5,0.5-0.8,1.5-0.8,3.2v19.8c0,1.7,0.3,2.8,0.8,3.2c0.5,0.4,1.7,0.7,3.5,0.8v0.8h-13.2V372.1z"/>
		<path class="st2" d="M309,343.4h25.2l0.2,7.6h-1.1c-0.5-2.4-1.2-3.9-2-4.6s-2.5-1.1-5.1-1.1h-2.5v22.8c0,1.7,0.3,2.8,0.8,3.2
			c0.5,0.4,1.7,0.7,3.5,0.8v0.8h-13v-0.8c1.9-0.1,3.1-0.5,3.5-0.9c0.5-0.5,0.7-1.7,0.7-3.6v-22.3h-2.5c-2.5,0-4.2,0.4-5,1.1
			c-0.9,0.7-1.6,2.3-2,4.7h-1.1L309,343.4z"/>
		<path class="st2" d="M354,343.4v0.8c-1,0-1.8,0-2.4,0.2c-0.5,0.2-0.8,0.6-0.8,1.2c0,0.2,0,0.4,0.1,0.7c0.1,0.3,0.3,0.7,0.6,1.1
			l6.6,9.6l6.4-9.8c0.3-0.4,0.4-0.8,0.5-1c0.1-0.3,0.1-0.5,0.1-0.6c0-0.6-0.3-1.1-1-1.3c-0.4-0.1-1.1-0.2-2.1-0.2v-0.8h9.8v0.8
			c-0.9,0-1.7,0.3-2.4,0.8c-1.1,0.8-2.3,2.2-3.7,4.3l-6.6,10.1v8.7c0,1.7,0.3,2.8,0.8,3.2c0.6,0.4,1.8,0.7,3.8,0.8v0.8h-13.6V372
			c2-0.1,3.3-0.4,3.8-0.9s0.7-1.7,0.7-3.6v-7.7l-5.8-8.6c-2-2.9-3.4-4.8-4.2-5.7c-0.8-0.8-1.8-1.3-3-1.3v-0.8L354,343.4L354,343.4z"
			/>
		<polygon class="st2" points="157,61.1 157,108.6 218.4,84.9 		"/>
		
			<linearGradient id="SVGID_00000065044378250350825220000004058812948102813109_" gradientUnits="userSpaceOnUse" x1="239.2443" y1="401.35" x2="197.5033" y2="401.35" gradientTransform="matrix(1 0 0 -1 0 510)">
			<stop  offset="0" style="stop-color:#F58220"/>
			<stop  offset="0.5" style="stop-color:#F99B1C"/>
			<stop  offset="1" style="stop-color:#FDB515"/>
		</linearGradient>
		
			<polygon style="fill-rule:evenodd;clip-rule:evenodd;fill:url(#SVGID_00000065044378250350825220000004058812948102813109_);" points="
			279.8,108.7 279.8,61.1 218.4,84.9 157,108.6 157,108.7 157,156.2 218.4,132.4 		"/>
		
			<linearGradient id="SVGID_00000176729604688855000240000013777931311812656555_" gradientUnits="userSpaceOnUse" x1="183.326" y1="318.2261" x2="212.6484" y2="267.4382" gradientTransform="matrix(1 0 0 -1 0 510)">
			<stop  offset="0" style="stop-color:#F58220"/>
			<stop  offset="0.5" style="stop-color:#F99B1C"/>
			<stop  offset="1" style="stop-color:#FDB515"/>
		</linearGradient>
		
			<polygon style="fill-rule:evenodd;clip-rule:evenodd;fill:url(#SVGID_00000176729604688855000240000013777931311812656555_);" points="
			157,211.2 218.4,235 218.4,187.5 		"/>
		<polygon class="st2" points="218.4,187.5 218.4,187.5 218.4,235 279.8,211.2 279.8,163.7 		"/>
		
			<linearGradient id="SVGID_00000131365031067982045940000003689854665951050887_" gradientUnits="userSpaceOnUse" x1="239.2443" y1="346.35" x2="197.5033" y2="346.35" gradientTransform="matrix(1 0 0 -1 0 510)">
			<stop  offset="0" style="stop-color:#F58220"/>
			<stop  offset="0.5" style="stop-color:#F99B1C"/>
			<stop  offset="1" style="stop-color:#FDB515"/>
		</linearGradient>
		
			<polygon style="fill-rule:evenodd;clip-rule:evenodd;fill:url(#SVGID_00000131365031067982045940000003689854665951050887_);" points="
			279.8,163.7 279.8,116.1 218.4,139.9 157,163.7 157,163.7 157,211.2 218.4,187.5 		"/>
	</g>
	<rect x="3.8" class="st6" width="429.1" height="434.6"/>
</g>
</svg>
